# xmcd CD database file
#
# Track frame offsets:
#	150
#	20435
#	45867
#
# Disc length: 880 seconds
#
# Revision: 0
# Processed by: cddbd v1.5PL3 Copyright (c) Steve Scherf et al.
# Submitted via: CDex 1.51
#
DISCID=15036e03
DTITLE=TOLIP - コントレール
DYEAR=2000
DGENRE=JPop
TTITLE0=コントレール
TTITLE1=コントレール(MST Remix)
TTITLE2=コントレール(オリジナル・カラオケ)
EXTD=YEAR: 2000
EXTT0=
EXTT1=
EXTT2=
PLAYORDER=
